HIERARCHY
ROOT joint_Root
{
	OFFSET 0.0 0.0 0.0
	CHANNELS 6 Xposition Yposition Zposition Zrotation Xrotation Yrotation 
	JOINT Hips
	{
		OFFSET -17.1583 93.1646 452.98
		CHANNELS 6 Xposition Yposition Zposition Zrotation Xrotation Yrotation 
		JOINT Spine
		{
			OFFSET 15.7357 0.0 0.0
			CHANNELS 6 Xposition Yposition Zposition Zrotation Xrotation Yrotation 
			JOINT Chest
			{
				OFFSET 8.98455 -0.406207 0.0
				CHANNELS 6 Xposition Yposition Zposition Zrotation Xrotation Yrotation 
				JOINT Neck
				{
					OFFSET 16.3773 0.0 0.0
					CHANNELS 6 Xposition Yposition Zposition Zrotation Xrotation Yrotation 
					JOINT Head
					{
						OFFSET 6.45672 0.0 0.0
						CHANNELS 6 Xposition Yposition Zposition Zrotation Xrotation Yrotation 
						End Site
						{
							OFFSET 0.0 0.0 0.0
						}
					}
				}
				JOINT Shoulder_L
				{
					OFFSET 12.9942 -0.242716 4.98039
					CHANNELS 6 Xposition Yposition Zposition Zrotation Xrotation Yrotation 
					JOINT UpperArm_L
					{
						OFFSET 5.34809 0.0 0.0
						CHANNELS 6 Xposition Yposition Zposition Zrotation Xrotation Yrotation 
						JOINT LowerArm_L
						{
							OFFSET 24.3286 1.87007e-05 0.0
							CHANNELS 6 Xposition Yposition Zposition Zrotation Xrotation Yrotation 
							JOINT Hand_L
							{
								OFFSET 22.2916 0.0 0.0
								CHANNELS 6 Xposition Yposition Zposition Zrotation Xrotation Yrotation 
								End Site
								{
									OFFSET 0.0 0.0 0.0
								}
							}
						}
					}
				}
				JOINT Shoulder_R
				{
					OFFSET 12.9945 -0.242716 -4.98039
					CHANNELS 6 Xposition Yposition Zposition Zrotation Xrotation Yrotation 
					JOINT UpperArm_R
					{
						OFFSET -5.34813 0.0 0.0
						CHANNELS 6 Xposition Yposition Zposition Zrotation Xrotation Yrotation 
						JOINT LowerArm_R
						{
							OFFSET -24.3289 0.000322201 0.0
							CHANNELS 6 Xposition Yposition Zposition Zrotation Xrotation Yrotation 
							JOINT Hand_R
							{
								OFFSET -22.2915 -0.000108084 0.0
								CHANNELS 6 Xposition Yposition Zposition Zrotation Xrotation Yrotation 
								End Site
								{
									OFFSET 0.0 0.0 0.0
								}
							}
						}
					}
				}
			}
		}
		JOINT UpperLeg_L
		{
			OFFSET -2.19248 -6.46944 0.0
			CHANNELS 6 Xposition Yposition Zposition Zrotation Xrotation Yrotation 
			JOINT LowerLeg_L
			{
				OFFSET 39.0811 0.0 -1.23785e-05
				CHANNELS 6 Xposition Yposition Zposition Zrotation Xrotation Yrotation 
				JOINT Foot_L
				{
					OFFSET 40.9854 0.0 -1.26872e-05
					CHANNELS 6 Xposition Yposition Zposition Zrotation Xrotation Yrotation 
					JOINT Toes_L
					{
						OFFSET 11.7543 0.0 0.0
						CHANNELS 6 Xposition Yposition Zposition Zrotation Xrotation Yrotation 
						End Site
						{
							OFFSET 0.0 0.0 0.0
						}
					}
				}
			}
		}
		JOINT UpperLeg_R
		{
			OFFSET -2.19251 6.46944 0.0
			CHANNELS 6 Xposition Yposition Zposition Zrotation Xrotation Yrotation 
			JOINT LowerLeg_R
			{
				OFFSET -39.0811 -0.00228153 -0.0401928
				CHANNELS 6 Xposition Yposition Zposition Zrotation Xrotation Yrotation 
				JOINT Foot_R
				{
					OFFSET -40.9854 0.0 0.0
					CHANNELS 6 Xposition Yposition Zposition Zrotation Xrotation Yrotation 
					JOINT Toes_R
					{
						OFFSET -11.7543 0.0 0.0
						CHANNELS 6 Xposition Yposition Zposition Zrotation Xrotation Yrotation 
						End Site
						{
							OFFSET 0.0 0.0 0.0
						}
					}
				}
			}
		}
	}
}
MOTION
Frames:	5
Frame Time:	0.0333333
0.000000 0.000000 0.000000 0.000000 0.000000 -0.000000 155.293000 91.329900 265.308000 -78.690600 42.087600 172.115000 15.735700 0.000005 -0.000001 76.115300 86.657700 -71.727400 8.984550 -0.406207 -0.000000 -1.187260 -1.946090 8.753200 16.377300 -0.000001 -0.000001 4.594840 12.512300 2.966670 6.456720 -0.000001 -0.000000 7.374050 21.321500 -1.277280 12.994200 -0.242716 4.980390 -92.710800 8.039160 -71.295700 5.348090 -0.000007 -0.000001 -73.226900 -4.443140 9.428610 24.328600 0.000019 0.000005 0.000015 49.192100 -0.000000 22.291600 -0.000001 0.000005 -19.272300 4.910270 9.174660 12.994500 -0.242716 -4.980390 88.269000 5.296570 -71.872600 -5.348130 -0.000001 -0.000004 -59.769000 6.926480 -15.708000 -24.328900 0.000322 -0.000009 0.756569 3.230130 -13.281400 -22.291500 -0.000108 -0.000004 8.709810 5.160710 3.683820 -2.192480 -6.469440 -0.000000 -171.039000 1.923210 -20.292400 39.081100 -0.000007 -0.000012 0.272383 -0.111823 67.679100 40.985400 -0.000006 -0.000013 -2.916540 7.292530 -41.273400 11.754300 -0.000000 0.000003 0.000745 0.013659 -16.022900 -2.192510 6.469440 -0.000001 -177.766000 8.272740 174.115000 -39.081100 -0.002282 -0.040193 -0.072878 0.142467 28.135400 -40.985400 0.000008 0.000006 -13.986500 -1.641300 -69.541100 -11.754300 -0.000006 -0.000006 0.000045 0.166912 -9.803490
0.000000 0.000000 0.000000 0.000000 0.000000 -0.000000 157.214000 92.346000 263.176000 -80.494300 41.767400 172.666000 15.735700 0.000005 -0.000001 95.515100 86.926900 -91.749500 8.984550 -0.406207 -0.000000 -1.646430 0.281593 7.533250 16.377300 -0.000001 -0.000001 3.969030 11.903000 3.627430 6.456720 -0.000001 -0.000000 7.003700 19.948900 -1.045370 12.994200 -0.242716 4.980390 -92.713300 7.578640 -70.234300 5.348090 -0.000007 -0.000001 -69.769900 -7.159620 15.705800 24.328600 0.000019 0.000005 1.800260 49.146900 -2.380040 22.291600 -0.000001 0.000005 -18.305100 4.888270 9.628220 12.994500 -0.242716 -4.980390 88.539800 4.558970 -72.219500 -5.348130 -0.000001 -0.000004 -58.602600 6.627260 -20.112200 -24.328900 0.000322 -0.000009 -0.658900 -1.596880 -22.203800 -22.291500 -0.000108 -0.000004 8.546170 5.237340 1.763100 -2.192480 -6.469440 -0.000000 -173.757000 0.118922 -23.943600 39.081100 -0.000007 -0.000012 0.215382 -0.105129 63.981800 40.985400 -0.000006 -0.000013 -4.553240 12.844700 -45.916600 11.754300 -0.000000 0.000003 0.000942 0.017744 -15.857100 -2.192510 6.469440 -0.000001 -179.462000 9.403340 176.456000 -39.081100 -0.002282 -0.040193 -0.057102 0.128233 25.226200 -40.985400 0.000008 0.000006 -14.274700 -1.296040 -65.683700 -11.754300 -0.000006 -0.000006 0.002240 0.110342 -12.098700
0.000000 0.000000 0.000000 0.000000 0.000000 -0.000000 159.083000 93.167400 261.115000 -82.196000 41.158300 172.751000 15.735700 0.000005 -0.000001 115.434000 86.927500 -112.327000 8.984550 -0.406207 -0.000000 -2.273880 2.366320 6.261460 16.377300 -0.000001 -0.000001 3.313610 11.262100 4.163840 6.456720 -0.000001 -0.000000 6.182960 18.248600 -0.622723 12.994200 -0.242716 4.980390 -92.727400 7.082830 -68.875300 5.348090 -0.000007 -0.000001 -64.605600 -9.026320 20.598600 24.328600 0.000019 0.000005 2.890190 41.372800 -4.370250 22.291600 -0.000001 0.000005 -15.449200 5.025680 6.789110 12.994500 -0.242716 -4.980390 88.758300 4.006590 -72.766100 -5.348130 -0.000001 -0.000004 -57.101600 4.931620 -22.961700 -24.328900 0.000322 -0.000009 -3.532160 -5.612320 -32.197600 -22.291500 -0.000108 -0.000004 8.584990 5.321040 -0.522511 -2.192480 -6.469440 -0.000000 -176.193000 -1.232020 -26.751900 39.081100 -0.000007 -0.000012 0.172717 -0.111442 57.167800 40.985400 -0.000006 -0.000013 -7.421350 15.921200 -50.735200 11.754300 -0.000000 0.000003 0.000736 0.013479 -16.030200 -2.192510 6.469440 -0.000001 178.943000 11.898000 178.489000 -39.081100 -0.002282 -0.040193 -0.031254 0.084905 22.155100 -40.985400 0.000008 0.000006 -13.690100 -0.164808 -61.935900 -11.754300 -0.000006 -0.000006 0.002098 0.050618 -14.520000
0.000000 0.000000 0.000000 0.000000 0.000000 -0.000000 160.982000 93.660100 259.099000 -83.529500 39.900000 172.278000 15.735700 0.000005 -0.000001 130.998000 86.780100 -128.473000 8.984550 -0.406207 -0.000000 -2.991850 3.986120 5.156610 16.377300 -0.000001 -0.000001 2.419480 10.657800 4.446010 6.456720 -0.000001 -0.000000 5.360290 16.504000 -0.008750 12.994200 -0.242716 4.980390 -92.638700 6.454600 -67.707400 5.348090 -0.000007 -0.000001 -57.937800 -13.099500 23.974500 24.328600 0.000019 0.000005 2.573680 30.778500 -5.022330 22.291600 -0.000001 0.000005 -14.087400 5.085480 5.440810 12.994500 -0.242716 -4.980390 88.962900 3.421410 -73.127100 -5.348130 -0.000001 -0.000004 -55.653800 2.789020 -25.326400 -24.328900 0.000322 -0.000009 -6.596700 -7.515250 -41.463000 -22.291500 -0.000108 -0.000004 9.673250 5.384810 -2.442250 -2.192480 -6.469440 -0.000000 -178.473000 -2.054710 -29.100400 39.081100 -0.000007 -0.000012 0.118118 -0.105394 48.257300 40.985400 -0.000006 -0.000013 -8.314810 14.377800 -53.483100 11.754300 -0.000000 0.000003 0.000993 0.018846 -15.812400 -2.192510 6.469440 -0.000001 177.856000 14.648700 -179.861000 -39.081100 -0.002282 -0.040193 -0.010444 0.038984 19.449400 -40.985400 0.000008 0.000006 -13.079100 0.658251 -58.864000 -11.754300 -0.000006 -0.000006 -0.000676 -0.010699 -17.008400
0.000000 0.000000 0.000000 0.000000 0.000000 -0.000000 162.985000 93.791500 257.103000 -84.234800 38.012700 171.400000 15.735700 0.000005 -0.000001 140.991000 86.627900 -138.860000 8.984550 -0.406207 -0.000000 -3.617750 5.026110 4.424020 16.377300 -0.000001 -0.000001 1.204920 9.959480 4.505470 6.456720 -0.000001 -0.000000 4.837590 15.151200 0.443691 12.994200 -0.242716 4.980390 -92.586600 6.092560 -66.943300 5.348090 -0.000007 -0.000001 -50.943300 -17.635000 26.231300 24.328600 0.000019 0.000005 2.112130 21.584000 -5.726740 22.291600 -0.000001 0.000005 -11.696000 5.014250 6.993120 12.994500 -0.242716 -4.980390 89.270500 2.451810 -73.424900 -5.348130 -0.000001 -0.000004 -55.172100 0.094885 -27.263300 -24.328900 0.000322 -0.000009 -8.616100 -7.431160 -49.511600 -22.291500 -0.000108 -0.000004 10.608300 5.407590 -3.184900 -2.192480 -6.469440 -0.000000 179.443000 -2.584520 -30.551500 39.081100 -0.000007 -0.000012 0.049825 -0.064483 37.691700 40.985400 -0.000006 -0.000013 -4.554090 9.911720 -55.663200 11.754300 -0.000000 0.000003 0.001161 0.022609 -15.659700 -2.192510 6.469440 -0.000001 177.596000 16.667000 -178.491000 -39.081100 -0.002282 -0.040193 -0.000075 0.010753 17.549500 -40.985400 0.000008 0.000006 -12.708900 0.451406 -56.691900 -11.754300 -0.000006 -0.000006 -0.006246 -0.073056 -19.546600
